<svg width="387" height="84" viewBox="0 0 387 84" fill="none" xmlns="http://www.w3.org/2000/svg">
<path d="M131.04 24C134.92 24 137.96 24.4 140.16 25.2C142.36 26 143.92 27.38 144.84 29.34C145.8 31.3 146.28 34.04 146.28 37.56C146.28 41.08 145.82 43.82 144.9 45.78C144.02 47.74 142.56 49.12 140.52 49.92C138.48 50.68 135.72 51.06 132.24 51.06C130.4 51.06 128.6 50.98 126.84 50.82C125.08 50.66 123.44 50.46 121.92 50.22C120.4 49.98 119.1 49.74 118.02 49.5C116.94 49.22 116.2 48.96 115.8 48.72L115.98 44.16C118.34 44.16 120.78 44.16 123.3 44.16C125.86 44.16 128.38 44.16 130.86 44.16C132.46 44.12 133.7 43.92 134.58 43.56C135.5 43.2 136.14 42.54 136.5 41.58C136.9 40.62 137.1 39.28 137.1 37.56C137.1 35.8 136.9 34.44 136.5 33.48C136.14 32.52 135.5 31.86 134.58 31.5C133.7 31.1 132.46 30.9 130.86 30.9C127.18 30.9 124.02 30.92 121.38 30.96C118.74 31 116.96 31.08 116.04 31.2L115.14 24.6C116.82 24.4 118.4 24.26 119.88 24.18C121.36 24.1 122.96 24.06 124.68 24.06C126.44 24.02 128.56 24 131.04 24ZM124.32 24.6V66H115.14V24.6H124.32ZM152.688 50.6L152.666 62.524C152.666 62.8907 152.776 63.1693 152.996 63.36C153.216 63.536 153.539 63.624 153.964 63.624H154.844L155.218 65.824C155.042 65.912 154.793 65.9853 154.47 66.044C154.147 66.1173 153.817 66.1687 153.48 66.198C153.143 66.242 152.857 66.264 152.622 66.264C151.639 66.264 150.862 66.0073 150.29 65.494C149.718 64.9807 149.432 64.262 149.432 63.338V50.6H152.688ZM162.371 54.846C163.28 54.846 164.05 54.9707 164.681 55.22C165.311 55.4547 165.788 55.8653 166.111 56.452C166.448 57.024 166.617 57.816 166.617 58.828V66H164.021L163.559 63.646L163.339 63.316V58.806C163.339 58.2927 163.214 57.9187 162.965 57.684C162.73 57.4493 162.275 57.332 161.601 57.332C161.043 57.332 160.347 57.354 159.511 57.398C158.675 57.4273 157.817 57.4713 156.937 57.53L156.629 55.374C157.157 55.2713 157.765 55.1833 158.455 55.11C159.144 55.0367 159.833 54.978 160.523 54.934C161.212 54.8753 161.828 54.846 162.371 54.846ZM165.275 59.312L165.253 61.138L160.413 61.16C160.017 61.16 159.731 61.2553 159.555 61.446C159.393 61.6367 159.313 61.8933 159.313 62.216V62.744C159.313 63.1107 159.415 63.3967 159.621 63.602C159.826 63.7927 160.156 63.888 160.611 63.888C160.992 63.888 161.403 63.8073 161.843 63.646C162.297 63.4847 162.745 63.2573 163.185 62.964C163.625 62.6707 164.013 62.326 164.351 61.93V63.338C164.219 63.558 164.021 63.8367 163.757 64.174C163.507 64.4967 163.185 64.8193 162.789 65.142C162.393 65.45 161.931 65.714 161.403 65.934C160.875 66.154 160.273 66.264 159.599 66.264C158.939 66.264 158.345 66.1467 157.817 65.912C157.289 65.6773 156.871 65.3327 156.563 64.878C156.255 64.4233 156.101 63.8587 156.101 63.184V62.062C156.101 61.1967 156.394 60.522 156.981 60.038C157.567 59.554 158.374 59.312 159.401 59.312H165.275ZM174.235 54.846C174.631 54.846 175.064 54.868 175.533 54.912C176.003 54.9413 176.472 55.0073 176.941 55.11C177.425 55.198 177.865 55.33 178.261 55.506L177.909 57.552C177.323 57.5373 176.758 57.5227 176.215 57.508C175.687 57.4933 175.211 57.486 174.785 57.486C174.125 57.486 173.605 57.574 173.223 57.75C172.842 57.926 172.563 58.2413 172.387 58.696C172.226 59.136 172.145 59.752 172.145 60.544C172.145 61.3507 172.226 61.9813 172.387 62.436C172.563 62.8907 172.842 63.206 173.223 63.382C173.605 63.558 174.125 63.646 174.785 63.646C175.02 63.646 175.321 63.6387 175.687 63.624C176.054 63.6093 176.45 63.5947 176.875 63.58C177.301 63.5507 177.719 63.5067 178.129 63.448L178.437 65.516C177.851 65.78 177.183 65.9707 176.435 66.088C175.687 66.2053 174.947 66.264 174.213 66.264C172.864 66.264 171.786 66.0807 170.979 65.714C170.187 65.3327 169.615 64.724 169.263 63.888C168.911 63.052 168.735 61.9373 168.735 60.544C168.735 59.1507 168.911 58.036 169.263 57.2C169.63 56.364 170.217 55.7627 171.023 55.396C171.83 55.0293 172.901 54.846 174.235 54.846ZM185.388 54.846C187.221 54.846 188.534 55.1613 189.326 55.792C190.133 56.408 190.536 57.332 190.536 58.564C190.551 59.5613 190.301 60.3093 189.788 60.808C189.275 61.292 188.387 61.534 187.126 61.534H181.054V59.708H186.224C186.723 59.708 187.038 59.6053 187.17 59.4C187.317 59.18 187.39 58.8793 187.39 58.498C187.375 57.9847 187.221 57.6327 186.928 57.442C186.649 57.2367 186.173 57.134 185.498 57.134C184.897 57.134 184.427 57.2147 184.09 57.376C183.753 57.5373 183.518 57.8453 183.386 58.3C183.254 58.7547 183.188 59.4147 183.188 60.28C183.188 61.1893 183.269 61.8933 183.43 62.392C183.591 62.876 183.863 63.2133 184.244 63.404C184.64 63.5947 185.183 63.69 185.872 63.69C186.371 63.69 186.987 63.6753 187.72 63.646C188.468 63.602 189.216 63.536 189.964 63.448L190.272 65.45C189.847 65.6553 189.363 65.8167 188.82 65.934C188.277 66.0513 187.72 66.132 187.148 66.176C186.576 66.2347 186.026 66.264 185.498 66.264C184.119 66.264 183.005 66.066 182.154 65.67C181.318 65.2593 180.709 64.636 180.328 63.8C179.961 62.964 179.778 61.8933 179.778 60.588C179.778 59.1653 179.969 58.036 180.35 57.2C180.731 56.364 181.333 55.7627 182.154 55.396C182.975 55.0293 184.053 54.846 185.388 54.846ZM216.126 24C220.006 24 223.046 24.4 225.246 25.2C227.446 26 229.006 27.38 229.926 29.34C230.886 31.3 231.366 34.04 231.366 37.56C231.366 41.08 230.906 43.82 229.986 45.78C229.106 47.74 227.646 49.12 225.606 49.92C223.566 50.68 220.806 51.06 217.326 51.06C215.486 51.06 213.686 50.98 211.926 50.82C210.166 50.66 208.526 50.46 207.006 50.22C205.486 49.98 204.186 49.74 203.106 49.5C202.026 49.22 201.286 48.96 200.886 48.72L201.066 44.16C203.426 44.16 205.866 44.16 208.386 44.16C210.946 44.16 213.466 44.16 215.946 44.16C217.546 44.12 218.786 43.92 219.666 43.56C220.586 43.2 221.226 42.54 221.586 41.58C221.986 40.62 222.186 39.28 222.186 37.56C222.186 35.8 221.986 34.44 221.586 33.48C221.226 32.52 220.586 31.86 219.666 31.5C218.786 31.1 217.546 30.9 215.946 30.9C212.266 30.9 209.106 30.92 206.466 30.96C203.826 31 202.046 31.08 201.126 31.2L200.226 24.6C201.906 24.4 203.486 24.26 204.966 24.18C206.446 24.1 208.046 24.06 209.766 24.06C211.526 24.02 213.646 24 216.126 24ZM209.406 24.6V66H200.226V24.6H209.406ZM237.774 50.6L237.752 62.524C237.752 62.8907 237.862 63.1693 238.082 63.36C238.302 63.536 238.624 63.624 239.05 63.624H239.93L240.304 65.824C240.128 65.912 239.878 65.9853 239.556 66.044C239.233 66.1173 238.903 66.1687 238.566 66.198C238.228 66.242 237.942 66.264 237.708 66.264C236.725 66.264 235.948 66.0073 235.376 65.494C234.804 64.9807 234.518 64.262 234.518 63.338V50.6H237.774ZM247.457 54.846C248.366 54.846 249.136 54.9707 249.767 55.22C250.397 55.4547 250.874 55.8653 251.197 56.452C251.534 57.024 251.703 57.816 251.703 58.828V66H249.107L248.645 63.646L248.425 63.316V58.806C248.425 58.2927 248.3 57.9187 248.051 57.684C247.816 57.4493 247.361 57.332 246.687 57.332C246.129 57.332 245.433 57.354 244.597 57.398C243.761 57.4273 242.903 57.4713 242.023 57.53L241.715 55.374C242.243 55.2713 242.851 55.1833 243.541 55.11C244.23 55.0367 244.919 54.978 245.609 54.934C246.298 54.8753 246.914 54.846 247.457 54.846ZM250.361 59.312L250.339 61.138L245.499 61.16C245.103 61.16 244.817 61.2553 244.641 61.446C244.479 61.6367 244.399 61.8933 244.399 62.216V62.744C244.399 63.1107 244.501 63.3967 244.707 63.602C244.912 63.7927 245.242 63.888 245.697 63.888C246.078 63.888 246.489 63.8073 246.929 63.646C247.383 63.4847 247.831 63.2573 248.271 62.964C248.711 62.6707 249.099 62.326 249.437 61.93V63.338C249.305 63.558 249.107 63.8367 248.843 64.174C248.593 64.4967 248.271 64.8193 247.875 65.142C247.479 65.45 247.017 65.714 246.489 65.934C245.961 66.154 245.359 66.264 244.685 66.264C244.025 66.264 243.431 66.1467 242.903 65.912C242.375 65.6773 241.957 65.3327 241.649 64.878C241.341 64.4233 241.187 63.8587 241.187 63.184V62.062C241.187 61.1967 241.48 60.522 242.067 60.038C242.653 59.554 243.46 59.312 244.487 59.312H250.361ZM261.829 54.846C263.883 54.846 264.909 55.8507 264.909 57.86V66H261.653V58.872C261.653 58.388 261.565 58.058 261.389 57.882C261.213 57.6913 260.913 57.596 260.487 57.596C260.018 57.596 259.534 57.6913 259.035 57.882C258.537 58.058 257.921 58.3367 257.187 58.718L257.033 56.892C257.811 56.232 258.603 55.726 259.409 55.374C260.231 55.022 261.037 54.846 261.829 54.846ZM256.879 55.132L257.253 57.288L257.517 57.574V66H254.261V55.132H256.879ZM290.942 24C294.822 24 297.862 24.4 300.062 25.2C302.262 26 303.822 27.38 304.742 29.34C305.702 31.3 306.182 34.04 306.182 37.56C306.182 41.08 305.722 43.82 304.802 45.78C303.922 47.74 302.462 49.12 300.422 49.92C298.382 50.68 295.622 51.06 292.142 51.06C290.302 51.06 288.502 50.98 286.742 50.82C284.982 50.66 283.342 50.46 281.822 50.22C280.302 49.98 279.002 49.74 277.922 49.5C276.842 49.22 276.102 48.96 275.702 48.72L275.882 44.16C278.242 44.16 280.682 44.16 283.202 44.16C285.762 44.16 288.282 44.16 290.762 44.16C292.362 44.12 293.602 43.92 294.482 43.56C295.402 43.2 296.042 42.54 296.402 41.58C296.802 40.62 297.002 39.28 297.002 37.56C297.002 35.8 296.802 34.44 296.402 33.48C296.042 32.52 295.402 31.86 294.482 31.5C293.602 31.1 292.362 30.9 290.762 30.9C287.082 30.9 283.922 30.92 281.282 30.96C278.642 31 276.862 31.08 275.942 31.2L275.042 24.6C276.722 24.4 278.302 24.26 279.782 24.18C281.262 24.1 282.862 24.06 284.582 24.06C286.342 24.02 288.462 24 290.942 24ZM284.222 24.6V66H275.042V24.6H284.222ZM312.59 50.6L312.568 62.524C312.568 62.8907 312.678 63.1693 312.898 63.36C313.118 63.536 313.441 63.624 313.866 63.624H314.746L315.12 65.824C314.944 65.912 314.695 65.9853 314.372 66.044C314.05 66.1173 313.72 66.1687 313.382 66.198C313.045 66.242 312.759 66.264 312.524 66.264C311.542 66.264 310.764 66.0073 310.192 65.494C309.62 64.9807 309.334 64.262 309.334 63.338V50.6H312.59ZM322.273 54.846C323.182 54.846 323.952 54.9707 324.583 55.22C325.214 55.4547 325.69 55.8653 326.013 56.452C326.35 57.024 326.519 57.816 326.519 58.828V66H323.923L323.461 63.646L323.241 63.316V58.806C323.241 58.2927 323.116 57.9187 322.867 57.684C322.632 57.4493 322.178 57.332 321.503 57.332C320.946 57.332 320.249 57.354 319.413 57.398C318.577 57.4273 317.719 57.4713 316.839 57.53L316.531 55.374C317.059 55.2713 317.668 55.1833 318.357 55.11C319.046 55.0367 319.736 54.978 320.425 54.934C321.114 54.8753 321.73 54.846 322.273 54.846ZM325.177 59.312L325.155 61.138L320.315 61.16C319.919 61.16 319.633 61.2553 319.457 61.446C319.296 61.6367 319.215 61.8933 319.215 62.216V62.744C319.215 63.1107 319.318 63.3967 319.523 63.602C319.728 63.7927 320.058 63.888 320.513 63.888C320.894 63.888 321.305 63.8073 321.745 63.646C322.2 63.4847 322.647 63.2573 323.087 62.964C323.527 62.6707 323.916 62.326 324.253 61.93V63.338C324.121 63.558 323.923 63.8367 323.659 64.174C323.41 64.4967 323.087 64.8193 322.691 65.142C322.295 65.45 321.833 65.714 321.305 65.934C320.777 66.154 320.176 66.264 319.501 66.264C318.841 66.264 318.247 66.1467 317.719 65.912C317.191 65.6773 316.773 65.3327 316.465 64.878C316.157 64.4233 316.003 63.8587 316.003 63.184V62.062C316.003 61.1967 316.296 60.522 316.883 60.038C317.47 59.554 318.276 59.312 319.303 59.312H325.177ZM333.324 52.118V62.524C333.324 62.92 333.412 63.206 333.588 63.382C333.778 63.5433 334.086 63.624 334.512 63.624H335.92L336.272 65.824C336.008 65.912 335.685 65.9853 335.304 66.044C334.922 66.1173 334.541 66.1687 334.16 66.198C333.778 66.242 333.456 66.264 333.192 66.264C332.209 66.264 331.439 66 330.882 65.472C330.339 64.944 330.068 64.2033 330.068 63.25L330.046 52.118H333.324ZM336.36 55.132V57.266H328.154V55.242L330.266 55.132H336.36ZM342.655 50.138C342.919 50.138 343.264 50.1453 343.689 50.16C344.129 50.1747 344.569 50.204 345.009 50.248C345.464 50.2773 345.853 50.3213 346.175 50.38L345.889 52.47H343.821C343.264 52.47 342.875 52.58 342.655 52.8C342.435 53.02 342.325 53.4013 342.325 53.944V66H339.069V53.526C339.069 52.8367 339.179 52.2427 339.399 51.744C339.634 51.2453 340.015 50.8567 340.543 50.578C341.071 50.2847 341.775 50.138 342.655 50.138ZM345.361 55.132V57.266H337.177V55.242L339.135 55.132H345.361ZM352.037 54.846C353.401 54.846 354.494 55.0367 355.315 55.418C356.136 55.7847 356.723 56.386 357.075 57.222C357.442 58.058 357.625 59.18 357.625 60.588C357.625 61.9667 357.442 63.074 357.075 63.91C356.723 64.746 356.136 65.3473 355.315 65.714C354.494 66.0807 353.401 66.264 352.037 66.264C350.688 66.264 349.595 66.0807 348.759 65.714C347.938 65.3473 347.344 64.746 346.977 63.91C346.61 63.074 346.427 61.9667 346.427 60.588C346.427 59.18 346.61 58.058 346.977 57.222C347.344 56.386 347.938 55.7847 348.759 55.418C349.595 55.0367 350.688 54.846 352.037 54.846ZM352.037 57.222C351.48 57.222 351.04 57.3173 350.717 57.508C350.394 57.6987 350.167 58.036 350.035 58.52C349.903 59.004 349.837 59.6933 349.837 60.588C349.837 61.468 349.903 62.15 350.035 62.634C350.167 63.118 350.394 63.4553 350.717 63.646C351.04 63.822 351.48 63.91 352.037 63.91C352.594 63.91 353.034 63.822 353.357 63.646C353.68 63.4553 353.907 63.118 354.039 62.634C354.171 62.15 354.237 61.468 354.237 60.588C354.237 59.6933 354.171 59.004 354.039 58.52C353.907 58.036 353.68 57.6987 353.357 57.508C353.034 57.3173 352.594 57.222 352.037 57.222ZM362.395 55.132L362.791 57.288L363.099 57.574V66H359.843V55.132H362.395ZM367.697 54.846L367.389 57.86H366.487C365.974 57.86 365.439 57.9333 364.881 58.08C364.324 58.2267 363.62 58.4467 362.769 58.74L362.549 56.914C363.312 56.2393 364.082 55.726 364.859 55.374C365.637 55.022 366.392 54.846 367.125 54.846H367.697ZM383.004 54.846C383.987 54.846 384.735 55.1027 385.248 55.616C385.761 56.1293 386.018 56.8773 386.018 57.86V66H382.784V58.872C382.784 58.4173 382.696 58.0947 382.52 57.904C382.344 57.6987 382.036 57.596 381.596 57.596C381.332 57.596 381.083 57.6327 380.848 57.706C380.613 57.7793 380.342 57.8967 380.034 58.058C379.726 58.2193 379.352 58.4393 378.912 58.718L378.736 56.914C379.44 56.2247 380.129 55.7113 380.804 55.374C381.493 55.022 382.227 54.846 383.004 54.846ZM371.828 55.132L372.158 57.288L372.488 57.574V66H369.232V55.132H371.828ZM376.228 54.846C377.196 54.846 377.929 55.1027 378.428 55.616C378.941 56.1147 379.198 56.8627 379.198 57.86V66H376.074V58.872C376.074 58.4027 375.971 58.0727 375.766 57.882C375.575 57.6913 375.275 57.596 374.864 57.596C374.615 57.596 374.365 57.6327 374.116 57.706C373.881 57.7647 373.603 57.8747 373.28 58.036C372.972 58.1973 372.591 58.4247 372.136 58.718L371.938 56.914C372.657 56.2247 373.353 55.7113 374.028 55.374C374.703 55.022 375.436 54.846 376.228 54.846Z" fill="#3F8EFC"/>
<path d="M74.07 15.0633V14.215C74.07 10.5471 72.613 7.02935 70.0193 4.43572C67.4257 1.8421 63.908 0.38501 60.24 0.38501C56.5721 0.38501 53.0544 1.8421 50.4607 4.43572C47.8671 7.02935 46.41 10.5471 46.41 14.215H37.19C37.19 10.5471 35.7329 7.02935 33.1393 4.43572C30.5457 1.8421 27.028 0.38501 23.36 0.38501C19.6921 0.38501 16.1744 1.8421 13.5807 4.43572C10.9871 7.02935 9.53003 10.5471 9.53003 14.215V15.0633C6.8417 16.0116 4.51253 17.7682 2.86186 20.0924C1.21118 22.4165 0.319836 25.1943 0.310028 28.045V69.535C0.310028 77.16 6.51509 83.365 14.14 83.365H69.46C77.085 83.365 83.29 77.16 83.29 69.535V28.045C83.2802 25.1943 82.3889 22.4165 80.7382 20.0924C79.0875 17.7682 76.7584 16.0116 74.07 15.0633ZM55.63 14.215C55.63 12.9924 56.1157 11.8198 56.9803 10.9552C57.8448 10.0907 59.0174 9.60501 60.24 9.60501C61.4627 9.60501 62.6353 10.0907 63.4998 10.9552C64.3643 11.8198 64.85 12.9924 64.85 14.215V23.435C64.85 24.6577 64.3643 25.8302 63.4998 26.6948C62.6353 27.5593 61.4627 28.045 60.24 28.045C59.0174 28.045 57.8448 27.5593 56.9803 26.6948C56.1157 25.8302 55.63 24.6577 55.63 23.435V14.215ZM18.75 14.215C18.75 12.9924 19.2357 11.8198 20.1003 10.9552C20.9648 10.0907 22.1374 9.60501 23.36 9.60501C24.5827 9.60501 25.7552 10.0907 26.6198 10.9552C27.4843 11.8198 27.97 12.9924 27.97 14.215V23.435C27.97 24.6577 27.4843 25.8302 26.6198 26.6948C25.7552 27.5593 24.5827 28.045 23.36 28.045C22.1374 28.045 20.9648 27.5593 20.1003 26.6948C19.2357 25.8302 18.75 24.6577 18.75 23.435V14.215ZM74.07 69.535C74.07 72.0751 72.0048 74.145 69.46 74.145H14.14C11.5953 74.145 9.53003 72.0751 9.53003 69.535V41.875H74.07V69.535Z" fill="#3F8EFC"/>
<rect x="18.64" y="46.555" width="8.4" height="8.4" rx="2.4" fill="#3F8EFC"/>
<rect x="38.08" y="46.555" width="8.4" height="8.4" rx="2.4" fill="#3F8EFC"/>
<rect x="57.52" y="46.555" width="8.4" height="8.4" rx="2.4" fill="#3F8EFC"/>
<rect x="18.64" y="59.035" width="8.4" height="8.4" rx="2.4" fill="#3F8EFC"/>
<rect x="38.08" y="59.035" width="8.4" height="8.4" rx="2.4" fill="#3F8EFC"/>
<rect x="57.52" y="59.035" width="8.4" height="8.4" rx="2.4" fill="#3F8EFC"/>
<path fill-rule="evenodd" clip-rule="evenodd" d="M83.259 37.4354V31.675C92.3115 31.7068 99.6401 39.055 99.6401 48.1149C99.6401 57.1749 92.3115 64.5231 83.259 64.5549V58.9624C89.1588 58.91 93.9254 54.1111 93.9254 48.1989C93.9254 42.2867 89.1588 37.4877 83.259 37.4354Z" fill="#3F8EFC"/>
</svg>
